<?xml version="1.0" encoding="UTF-8" standalone="no"?>
<!-- Created with Inkscape (http://www.inkscape.org/) -->

<svg
   width="240.343mm"
   height="310.97968mm"
   viewBox="0 0 240.343 310.97967"
   version="1.1"
   id="svg1"
   xml:space="preserve"
   inkscape:version="1.3 (0e150ed6c4, 2023-07-21)"
   sodipodi:docname="logo_PP.svg"
   xmlns:inkscape="http://www.inkscape.org/namespaces/inkscape"
   xmlns:sodipodi="http://sodipodi.sourceforge.net/DTD/sodipodi-0.dtd"
   xmlns="http://www.w3.org/2000/svg"
   xmlns:svg="http://www.w3.org/2000/svg"><sodipodi:namedview
     id="namedview1"
     pagecolor="#ffffff"
     bordercolor="#000000"
     borderopacity="0.25"
     inkscape:showpageshadow="2"
     inkscape:pageopacity="0.0"
     inkscape:pagecheckerboard="0"
     inkscape:deskcolor="#d1d1d1"
     inkscape:document-units="mm"
     inkscape:zoom="0.08929232"
     inkscape:cx="1511.8882"
     inkscape:cy="-330.37556"
     inkscape:window-width="1366"
     inkscape:window-height="745"
     inkscape:window-x="-8"
     inkscape:window-y="-8"
     inkscape:window-maximized="1"
     inkscape:current-layer="layer1" /><defs
     id="defs1" /><g
     inkscape:label="Capa 1"
     inkscape:groupmode="layer"
     id="layer1"
     transform="translate(-450.23039,-331.46051)"><path
       id="path8"
       style="opacity:1;fill:#ffffff;stroke-width:1;stroke-linejoin:round"
       d="m 546.8703,331.46052 c -10.66939,0.005 -21.28615,1.82706 -31.29369,5.97638 -18.7709,7.99046 -35.59306,21.33915 -47.36352,38.01421 -17.26355,30.35943 -18.3868,66.46589 -17.89917,100.52978 1.5929,33.79478 3.21605,67.58819 4.77594,101.38451 0.96433,4.34187 -0.74886,26.02672 2.81792,13.42761 4.5759,-18.92742 14.60693,-35.89328 26.09608,-51.40668 16.0226,-20.63095 41.96903,-30.00258 67.20313,-32.48329 30.73058,0.66253 63.19689,-13.22918 78.98329,-40.55102 11.7606,-18.07412 11.98807,-40.58618 9.45162,-61.24742 -3.20596,-32.87786 -29.51033,-60.82034 -61.16164,-68.7219 -10.21861,-3.1162 -20.94056,-4.9275 -31.60996,-4.92218 z m 8.33076,18.788 c 18.91396,-0.21052 36.65335,9.72084 49.14636,23.43836 8.5948,8.43075 11.66711,20.45018 14.75724,31.67352 3.82184,18.36305 -1.80896,37.7761 -12.2344,53.04121 -6.70681,10.21968 -16.77071,17.65102 -27.6195,23.01151 -8.64855,4.91922 -18.75861,5.56113 -28.48199,5.27823 12.16845,-4.23726 24.57307,-8.82587 34.34106,-17.5457 12.88996,-10.85333 20.66112,-27.29344 20.92431,-44.13632 0.73851,-12.15111 -0.68532,-24.60888 -6.06785,-35.66294 -3.18369,-8.40129 -9.83706,-14.61695 -16.08532,-20.77289 -6.36632,-7.03253 -15.221,-10.68481 -23.4239,-15.02286 -0.9427,-0.90865 -8.54997,-3.49257 -5.25601,-3.30212 z" /><path
       style="opacity:1;fill:#ffffff;stroke-width:1;stroke-linejoin:round"
       d="m 504.47019,642.44019 c -0.86424,-33.14984 -1.72849,-66.29968 -2.59273,-99.44952 5.44944,-10.32143 18.58496,-13.16541 28.33478,-18.24167 15.4717,-7.61102 32.67038,-9.30116 49.53955,-11.11168 13.20673,-1.73281 24.85024,-8.6332 36.47906,-14.60876 25.26155,-16.75485 39.40904,-47.43586 37.51409,-77.46654 0.42649,-9.45682 -4.23612,-18.33369 -3.63161,-27.68843 5.45314,-9.64262 17.96496,6.70916 23.14226,13.096 11.74711,15.79148 18.14657,35.65941 17.23112,55.36433 0.68152,23.07978 -6.00961,48.07933 -24.69932,63.04179 -14.37583,12.08691 -32.94263,18.54031 -51.27001,21.53037 -21.24525,2.13705 -42.36916,7.95892 -60.20922,20.04077 -17.69493,10.17642 -27.07563,29.23924 -36.46562,46.4923 -3.77651,9.98226 -8.05441,19.73271 -13.37235,29.00104 z"
       id="path9"
       sodipodi:nodetypes="cccccccccccccc" /></g></svg>
